<svg xmlns="http://www.w3.org/2000/svg" width="1012" height="778" viewBox="0 0 1012 778" version="1.1"><path d="M 541.607 116.582 C 541.273 117.452, 541 118.302, 541 118.470 C 541 118.639, 542.575 119.073, 544.500 119.434 C 546.425 119.795, 548.030 120.633, 548.068 121.295 C 548.105 121.958, 548.619 121.498, 549.210 120.274 C 550.009 118.619, 549.960 117.657, 549.020 116.524 C 547.349 114.510, 542.387 114.549, 541.607 116.582 M 541.607 164.582 C 541.273 165.452, 541.037 167.589, 541.081 169.332 L 541.162 172.500 542.536 169.500 C 544.128 166.024, 544.393 163, 543.107 163 C 542.616 163, 541.941 163.712, 541.607 164.582 M 514.500 174.795 C 510.222 175.648, 510.712 177, 515.300 177 C 517.885 177, 520 176.602, 520 176.117 C 520 174.984, 517.077 174.281, 514.500 174.795 M 424.181 195.046 C 422.522 196.591, 422.144 197.753, 422.633 199.796 C 423.441 203.167, 424 203.884, 424 201.550 C 424 200.259, 424.552 199.911, 426 200.290 C 427.100 200.577, 428 200.405, 428 199.906 C 428 199.408, 429.350 199, 431 199 C 434.448 199, 434.943 197.163, 432.171 194.655 C 429.712 192.430, 426.838 192.570, 424.181 195.046 M 419.070 261.250 C 419.109 263.587, 419.482 266.373, 419.900 267.441 C 420.517 269.015, 420.867 268.566, 421.757 265.060 C 422.574 261.840, 422.556 260.262, 421.686 258.869 C 419.834 255.904, 418.995 256.668, 419.070 261.250 M 447.355 279.235 C 446.464 280.677, 447.297 280.964, 454.081 281.551 L 460.500 282.107 457.500 280.358 C 454.240 278.456, 448.246 277.793, 447.355 279.235 M 330.313 312.103 C 326.446 313.221, 321.693 318.745, 320.141 323.922 C 319.514 326.018, 319 331.754, 319 336.670 C 319 344.778, 318.735 346.026, 316.152 350.100 C 313.874 353.692, 312.023 355.156, 306.902 357.416 C 295.247 362.559, 294.260 363.094, 292.006 365.494 C 288.946 368.751, 288.338 375.450, 290.695 379.929 C 293.478 385.215, 296.827 387.154, 303.280 387.212 C 313.284 387.302, 318.457 382.419, 321.496 370.016 C 323.237 362.911, 326.074 358, 328.438 358 C 329.149 358, 330.971 357.024, 332.488 355.830 C 335.096 353.779, 335.219 353.319, 334.744 347.395 C 334.465 343.927, 333.249 339.081, 332.021 336.544 C 329.446 331.224, 329.917 328.484, 333.257 329.357 C 336.242 330.138, 343.286 326.637, 346.559 322.747 C 348.651 320.261, 349.344 319.931, 350.067 321.075 C 350.564 321.859, 350.976 321.998, 350.985 321.385 C 351.015 319.189, 346.585 314.716, 342.579 312.896 C 338.130 310.876, 335.206 310.687, 330.313 312.103 M 352.212 332.800 C 351.888 342.434, 348.751 347, 342.457 347 C 340.191 347, 339.866 347.343, 340.323 349.250 C 340.620 350.488, 341.169 353.188, 341.543 355.250 C 341.917 357.313, 342.593 359, 343.045 359 C 343.497 359, 344.010 360.238, 344.184 361.750 C 344.499 364.490, 344.511 364.485, 347.753 360.096 C 352.195 354.082, 353.122 349.843, 352.746 337.267 C 352.566 331.235, 352.331 329.270, 352.212 332.800 M 774.750 465.693 C 771.587 467.102, 769 468.630, 769 469.088 C 769 470.670, 773.278 473.902, 776.228 474.550 C 778.339 475.014, 779.585 476.157, 780.583 478.545 C 781.352 480.385, 782.736 482.313, 783.660 482.829 C 785.137 483.656, 785.180 484.152, 784.016 486.962 C 781.659 492.651, 776.692 494.223, 769.750 491.478 C 768.409 490.948, 768 491.292, 768 492.952 C 768 494.143, 768.441 494.846, 768.979 494.513 C 770.174 493.774, 774 495.697, 774 497.035 C 774 497.566, 773.325 498, 772.500 498 C 771.675 498, 771 498.380, 771 498.845 C 771 500.633, 774.791 503, 777.654 503 C 782.259 503, 784.643 499.644, 786.181 491 C 787.316 484.623, 787.814 483.500, 789.508 483.500 C 791.130 483.500, 791.519 484.206, 791.603 487.303 C 791.759 493.053, 793.114 493.552, 797.274 489.393 C 802.293 484.373, 803.128 478.847, 799.862 472.263 C 795.193 462.853, 786.331 460.534, 774.750 465.693 M 282.480 544.022 C 280.679 546.012, 280.799 546.183, 290.004 554.772 C 302.780 566.693, 304.711 566.306, 297.500 553.267 C 294.526 547.889, 292.963 546.030, 291.405 546.017 C 290.253 546.008, 288.495 545.100, 287.500 544 C 285.244 541.507, 284.754 541.509, 282.480 544.022 M 366.928 557.586 C 366.044 558.652, 364.692 558.988, 362.806 558.611 C 360.162 558.082, 360 558.251, 360 561.525 L 360 565 373 565 C 385.333 565, 386 564.897, 386 563 C 386 561.674, 385.333 561, 384.023 561 C 382.935 561, 379.057 559.875, 375.404 558.500 C 367.535 555.538, 368.538 555.646, 366.928 557.586 M 851.926 686.125 C 851.885 686.331, 851.656 687.625, 851.418 689 C 851.179 690.375, 850.200 692.175, 849.242 693 C 847.734 694.299, 847.567 695.842, 848 704.490 C 848.414 712.762, 848.786 714.534, 850.163 714.796 C 851.406 715.033, 852.206 713.776, 853.338 709.806 C 857.372 695.656, 859.274 687.941, 858.836 687.503 C 858.205 686.871, 852.022 685.639, 851.926 686.125 M 736.262 736.376 C 729.944 738.772, 728.022 739.943, 728.012 741.402 C 728.001 743.194, 728.619 743.266, 738.656 742.652 C 744.516 742.293, 751.041 742, 753.156 742 C 756.555 742, 757 741.720, 757 739.582 C 757 735.098, 756.101 734.109, 752.549 734.686 C 750.643 734.995, 748.965 734.753, 748.568 734.110 C 747.571 732.497, 745.472 732.884, 736.262 736.376" stroke="none" fill="#000000" fill-rule="evenodd"/><path d="M 489.500 17.660 C 446.195 21.168, 403.337 35.023, 373 55.321 C 368.875 58.081, 365.275 60.601, 365 60.922 C 364.725 61.243, 361.895 63.484, 358.712 65.904 C 348.418 73.726, 328.190 96.937, 324.641 105 C 324.036 106.375, 323.251 107.725, 322.897 108 C 321.810 108.844, 313.936 125, 314.611 125 C 314.960 125, 314.685 125.675, 314 126.500 C 313.140 127.536, 313.102 128, 313.878 128 C 314.495 128, 315 128.436, 315 128.969 C 315 129.501, 314.380 129.699, 313.622 129.409 C 312.690 129.051, 312.104 129.836, 311.811 131.836 C 311.472 134.143, 311.703 134.667, 312.862 134.223 C 313.983 133.793, 314.169 134.118, 313.621 135.546 C 313.221 136.587, 313.214 137.119, 313.605 136.728 C 314.460 135.873, 317 137.807, 317 139.314 C 317 139.901, 316.339 139.509, 315.532 138.441 C 314.626 137.244, 314.051 137.002, 314.032 137.809 C 314.014 138.529, 313.641 138.896, 313.202 138.625 C 312.763 138.354, 311.751 138.595, 310.952 139.160 C 309.768 139.999, 309.823 140.085, 311.250 139.626 C 312.264 139.299, 313.006 139.575, 313.015 140.281 C 313.025 141.052, 313.387 140.949, 314 140 C 314.828 138.718, 314.972 138.754, 314.985 140.250 C 314.993 141.213, 314.298 142, 313.441 142 C 312.584 142, 312.136 142.412, 312.447 142.915 C 312.758 143.418, 312.447 144.075, 311.756 144.375 C 311.065 144.675, 311.850 144.660, 313.500 144.342 C 316.306 143.800, 316.376 143.858, 314.584 145.239 C 312.697 146.694, 312.697 146.732, 314.584 147.827 C 315.638 148.439, 315.937 148.953, 315.250 148.970 C 314.562 148.986, 314.112 149.563, 314.250 150.250 C 314.387 150.938, 313.904 151.376, 313.176 151.225 C 312.447 151.074, 312.141 151.419, 312.495 151.992 C 312.849 152.564, 313.670 152.767, 314.319 152.442 C 314.969 152.117, 314.712 152.497, 313.750 153.286 C 311.949 154.762, 311.308 159, 312.885 159 C 313.372 159, 314.489 160.098, 315.368 161.439 C 316.853 163.706, 316.844 163.855, 315.233 163.550 C 314.280 163.368, 312.920 163.846, 312.211 164.610 C 311.415 165.468, 311.333 166, 311.996 166 C 312.760 166, 312.762 166.577, 312 168 C 311.138 169.611, 311.240 170, 312.524 170 C 313.401 170, 313.871 169.601, 313.570 169.113 C 313.269 168.626, 313.805 167.628, 314.761 166.896 C 315.717 166.165, 316.166 165.960, 315.759 166.441 C 315.351 166.922, 315.519 167.920, 316.131 168.658 C 317.013 169.720, 316.593 170.131, 314.123 170.625 C 312.405 170.969, 311 171.670, 311 172.184 C 311 172.698, 311.450 172.840, 312 172.500 C 312.936 171.922, 313.455 173.340, 313.066 175.408 C 312.971 175.908, 313.481 176.689, 314.197 177.143 C 315.137 177.739, 314.942 177.978, 313.500 178 C 311.880 178.025, 311.779 178.207, 312.966 178.958 C 313.896 179.546, 314.903 179.496, 315.716 178.820 C 317.500 177.340, 317.331 178.812, 315.508 180.635 C 314.672 181.470, 313.462 181.795, 312.758 181.372 C 311.884 180.847, 311.918 181.131, 312.868 182.303 C 314.037 183.744, 313.990 184.367, 312.547 186.568 C 310.928 189.039, 310.936 189.105, 312.722 188.149 C 314.237 187.338, 314.614 187.521, 314.734 189.124 C 314.853 190.698, 314.439 190.973, 312.692 190.483 C 311.394 190.120, 310.984 190.210, 311.687 190.705 C 312.341 191.165, 313.361 192.820, 313.956 194.384 C 314.870 196.789, 314.803 197.138, 313.519 196.646 C 312.683 196.325, 312 196.444, 312 196.909 C 312 198.196, 314.595 200.072, 315.342 199.325 C 315.704 198.963, 316 199.227, 316 199.913 C 316 200.776, 315.001 200.973, 312.750 200.555 L 309.500 199.951 312.500 201.336 C 314.150 202.098, 315.907 202.490, 316.405 202.206 C 316.902 201.923, 316.988 202.211, 316.595 202.845 C 316.203 203.480, 315.184 204, 314.330 204 C 313.064 204, 313.129 204.322, 314.686 205.750 C 315.736 206.712, 315.938 207.050, 315.136 206.500 C 313.940 205.680, 313.772 205.995, 314.200 208.250 C 314.770 211.249, 313.463 212.086, 312.638 209.250 C 312.333 208.203, 312.191 208.504, 312.283 210 C 312.369 211.375, 312.028 213.175, 311.527 214 C 310.801 215.195, 310.909 215.279, 312.058 214.413 C 313.112 213.618, 314.172 213.681, 316 214.648 C 317.375 215.375, 318.050 216.029, 317.500 216.101 C 316.950 216.172, 315.869 216.291, 315.098 216.365 C 313.547 216.514, 312.613 220, 314.124 220 C 314.679 220, 314.723 220.723, 314.229 221.750 C 313.460 223.351, 313.363 225.749, 313.829 231.677 C 313.923 232.874, 314.788 234.059, 315.750 234.311 C 317.067 234.655, 316.943 234.797, 315.250 234.884 C 312.696 235.016, 312.247 236.497, 314.500 237.362 C 315.325 237.678, 315.993 238.514, 315.985 239.219 C 315.974 240.115, 315.678 240.049, 315 239 C 314.467 238.175, 313.991 237.725, 313.942 238 C 313.255 241.872, 313.396 245.873, 314.202 245.375 C 314.815 244.996, 314.791 245.522, 314.140 246.738 C 312.992 248.883, 313.518 253.714, 315.108 255.630 C 315.774 256.432, 315.704 257.065, 314.894 257.565 C 314.136 258.034, 313.952 257.887, 314.397 257.166 C 314.848 256.437, 314.565 256.230, 313.615 256.594 C 312.796 256.908, 312.370 257.801, 312.668 258.577 C 312.966 259.353, 313.561 259.771, 313.991 259.506 C 314.421 259.240, 315.007 259.917, 315.293 261.011 C 315.856 263.165, 314.475 263.799, 313.684 261.750 C 313.418 261.063, 313.271 261.755, 313.356 263.290 C 313.441 264.824, 314.183 266.505, 315.005 267.024 C 316.001 267.654, 316.083 267.974, 315.250 267.985 C 313.182 268.010, 313.841 272.044, 316.250 274.104 C 317.488 275.163, 318.050 275.969, 317.500 275.896 C 314.995 275.563, 314 276.145, 314 277.941 C 314 279.009, 314.462 280.167, 315.027 280.516 C 315.591 280.865, 315.969 281.679, 315.866 282.325 C 315.595 284.022, 318.121 293, 318.869 293.001 C 319.216 293.001, 319.561 294.014, 319.634 295.251 C 319.708 296.488, 321.182 301.156, 322.909 305.624 L 326.048 313.748 329.774 312.418 C 334.850 310.606, 337.776 310.715, 342.579 312.896 C 347.621 315.186, 351.273 319.564, 350.410 322.282 C 349.969 323.672, 350.143 324.030, 351 323.500 C 351.905 322.941, 352.044 323.609, 351.546 326.125 C 351.053 328.619, 351.152 329.108, 351.924 328 C 353.341 325.967, 353.367 347.139, 351.954 352.226 C 351.385 354.276, 349.362 357.992, 347.459 360.485 C 343.586 365.560, 343.420 366, 345.383 366 C 346.144 366, 347.067 364.988, 347.435 363.750 C 348.079 361.579, 348.158 361.610, 349.668 364.615 C 351.019 367.301, 352.165 367.954, 358.010 369.365 C 361.737 370.264, 365.847 370.998, 367.143 370.996 C 370.488 370.991, 375.230 367.841, 379.052 363.085 C 380.858 360.838, 383.159 359, 384.167 359 C 385.175 359, 386 358.652, 386 358.227 C 386 357.802, 387.641 354.990, 389.647 351.977 C 391.653 348.965, 393.674 344.538, 394.137 342.141 C 394.860 338.406, 394.659 337.338, 392.740 334.690 C 391.508 332.990, 388.246 327.767, 385.491 323.083 C 382.717 318.367, 379.090 313.629, 377.363 312.466 C 375.648 311.310, 371.041 309.791, 367.125 309.092 C 363.210 308.392, 359.772 307.439, 359.484 306.975 C 359.197 306.510, 359.436 304.016, 360.015 301.432 C 360.909 297.445, 360.812 296.450, 359.379 294.866 C 357.442 292.726, 353.734 292.411, 352.203 294.256 C 351.630 294.946, 350.851 296.746, 350.472 298.256 C 349.520 302.047, 348.500 301.709, 345.513 296.612 C 342.886 292.130, 341.801 287.488, 340.152 273.684 L 339.218 265.868 331.859 258.148 C 323.730 249.620, 321.659 247.058, 321.175 244.929 C 320.996 244.143, 320.458 243.358, 319.979 243.185 C 319.500 243.011, 318.801 239.749, 318.425 235.935 C 318.049 232.121, 317.376 229, 316.928 229 C 316.481 229, 316.337 227.988, 316.609 226.750 C 317.142 224.319, 317.669 221.463, 318.582 216.055 C 319.223 212.258, 322.370 205.640, 327.021 198.306 C 331.931 190.564, 332.349 187.510, 330.026 176.386 C 328.912 171.048, 328 164.591, 328 162.037 C 328 153.284, 334.782 143.334, 345.409 136.496 C 354.436 130.687, 355.036 129.602, 358.530 112.749 C 361.999 96.016, 375.351 83.864, 393.414 80.999 C 416.975 77.262, 417.966 76.808, 432.418 63.145 C 446.856 49.496, 453.794 45.941, 467.383 45.231 C 475.109 44.826, 479.325 45.282, 493.003 48.001 C 511.682 51.713, 514.939 51.669, 533.097 47.461 C 542.361 45.314, 546.282 44.893, 554 45.215 C 566.993 45.758, 570.897 47.673, 582.901 59.393 C 588.180 64.548, 593.850 69.436, 595.500 70.255 C 597.150 71.075, 602.667 72.696, 607.760 73.858 C 618.545 76.318, 623.292 78.540, 627.638 83.162 C 633.944 89.870, 634.403 91.704, 634.976 112.500 L 635.500 131.500 639.658 140.500 C 644.825 151.681, 645.440 154.599, 644.029 161.230 C 642.132 170.152, 638.350 173.148, 621.769 178.865 C 601.697 185.786, 602.449 184.960, 594.870 208.408 C 590.712 221.274, 588.751 225.750, 584.614 231.817 C 575.987 244.473, 567.821 248.655, 545.310 251.947 C 528.232 254.445, 525.324 255.258, 520.204 258.967 C 515.103 262.662, 512.089 267.799, 507.570 280.500 C 501.141 298.571, 496.993 301.994, 476.131 306.448 C 461.892 309.487, 456.161 311.831, 452.588 316.078 C 451.236 317.685, 449.936 319, 449.700 319 C 449.464 319, 450.272 314.060, 451.495 308.022 C 453.440 298.426, 453.541 296.790, 452.303 295.022 C 450.671 292.692, 446.781 292.354, 445.087 294.395 C 444.450 295.162, 442.132 304.500, 439.935 315.145 C 437.738 325.790, 435.699 335.287, 435.403 336.250 C 434.925 337.807, 433.331 338, 420.946 338 L 407.027 338 405.463 341.750 C 404.602 343.813, 402.618 346.850, 401.053 348.500 C 399.488 350.150, 396.813 354.295, 395.109 357.711 L 392.011 363.922 396.506 366.556 L 401.001 369.190 398.967 372.046 C 396.045 376.150, 387.305 383.374, 381.601 386.401 C 377.936 388.345, 375.229 389, 370.851 389 C 367.633 389, 365 389.241, 365 389.535 C 365 389.830, 365.727 391.180, 366.615 392.535 L 368.230 395 359.115 395 C 354.102 395, 350.007 395.113, 350.015 395.250 C 350.024 395.387, 350.635 397.525, 351.374 400 L 352.717 404.500 364.271 404.781 L 375.824 405.062 381.747 413.781 C 387.156 421.744, 389.390 425.667, 389.274 427 C 389.250 427.275, 388.902 428.581, 388.500 429.901 C 387.932 431.767, 388.092 432.179, 389.218 431.747 C 390.045 431.429, 390.667 431.774, 390.667 432.551 C 390.667 433.300, 390.276 433.671, 389.799 433.376 C 389.322 433.081, 389.158 434.085, 389.434 435.606 C 389.709 437.128, 389.387 439.051, 388.718 439.879 C 387.928 440.855, 387.900 441.145, 388.636 440.703 C 389.288 440.313, 389.987 440.843, 390.276 441.947 C 390.590 443.148, 390.163 444.110, 389.139 444.507 C 387.636 445.090, 387.642 445.248, 389.215 446.406 C 390.521 447.368, 390.652 447.948, 389.765 448.835 C 388.878 449.722, 388.946 450.030, 390.050 450.125 C 395.047 450.556, 380.352 451.864, 369.817 451.926 C 355.443 452.010, 356.599 452.774, 355.553 442.500 C 355.217 439.200, 354.706 434.904, 354.417 432.953 L 353.893 429.406 348.196 430.119 C 339.908 431.155, 320.995 431.146, 317.360 430.103 L 314.234 429.207 313.684 454.853 C 312.898 491.528, 311.231 498.016, 297.396 518.264 L 292.090 526.029 297.016 529.706 C 300.768 532.507, 301.829 533.874, 301.468 535.442 C 301.207 536.574, 300.308 540.850, 299.470 544.944 C 298.632 549.038, 297.759 552.575, 297.530 552.804 C 297.301 553.032, 298.213 554.961, 299.557 557.090 C 300.901 559.219, 302 561.393, 302 561.921 C 302 563.866, 299.819 564.146, 297.937 562.443 C 296.872 561.479, 296 560.944, 296 561.254 C 296 561.564, 291.021 585.821, 284.936 615.159 C 278.851 644.497, 271.993 677.569, 269.695 688.654 C 265.579 708.511, 265.545 708.840, 267.413 710.904 C 268.457 712.057, 270.054 713, 270.964 713 C 275.317 713, 275.865 711.274, 283.494 673.500 C 287.604 653.150, 291.208 635.487, 291.503 634.250 L 292.038 632 333.019 632 C 367.046 632, 374 632.232, 374 633.370 C 374 634.123, 371.341 647.285, 368.090 662.620 C 359.363 703.792, 358.775 706.969, 359.417 709.527 C 360.422 713.528, 366.990 714.024, 368.488 710.212 C 368.858 709.270, 372.516 692.300, 376.617 672.500 C 386.099 626.719, 388.375 616.292, 389.022 615.644 C 389.310 615.357, 389.510 620.072, 389.467 626.122 C 389.424 632.172, 389.773 637.360, 390.243 637.650 C 390.713 637.940, 390.699 638.700, 390.213 639.339 C 389.077 640.829, 389.240 654.055, 390.416 655.905 C 390.997 656.819, 390.945 657.084, 390.267 656.665 C 389.659 656.289, 389.041 657.267, 388.785 659.010 C 388.486 661.048, 388.769 662, 389.673 662 C 390.403 662, 391 662.450, 391 663 C 391 663.550, 390.663 663.947, 390.250 663.882 C 388.358 663.583, 388.007 664.145, 388.968 665.939 C 389.664 667.241, 389.673 668.084, 388.995 668.503 C 388.071 669.074, 388.328 673.662, 389.341 674.675 C 389.578 674.911, 419.072 675.378, 454.885 675.713 L 520 676.322 520 656.208 C 520 636.437, 520.039 636.064, 522.281 634.373 L 524.562 632.653 522.281 630.372 L 520 628.091 520 590.545 C 520 545.476, 518.855 549, 533.500 549 C 540.454 549, 542.989 548.665, 542.961 547.750 C 542.939 547.063, 542.090 542.523, 541.074 537.663 L 539.228 528.826 541.364 529.433 C 571.512 537.996, 601.688 538.430, 624.610 530.632 C 635.463 526.940, 650 519.099, 650 516.936 C 650 515.328, 642.976 512.777, 639.823 513.239 C 638.270 513.467, 637 513.373, 637 513.030 C 637 510.474, 645.364 488.239, 646.697 487.250 C 649.282 485.333, 652.127 485.706, 663.864 489.500 C 669.818 491.425, 674.956 493, 675.282 493 C 676.484 493, 686.943 476.187, 691.767 466.500 C 703.197 443.550, 712.714 409.541, 715.647 381.172 L 716.301 374.844 724.807 370.914 C 735.082 366.167, 741.064 361.449, 744.744 355.188 C 747.132 351.127, 747.500 349.430, 747.500 342.500 L 747.500 334.500 736.358 311.500 C 720.839 279.462, 717.589 269.208, 710.528 230 C 704.275 195.276, 699.250 176.755, 689.467 152.371 C 664.145 89.252, 620.398 45.151, 565.098 26.992 C 541.620 19.282, 513.034 15.754, 489.500 17.660 M 441 106.334 C 441 107.133, 440.250 108.074, 439.333 108.426 C 438.098 108.900, 437.957 109.357, 438.790 110.190 C 439.624 111.024, 440.315 110.983, 441.458 110.035 C 443.216 108.576, 443.475 106.412, 442 105.500 C 441.450 105.160, 441 105.535, 441 106.334 M 435.635 109.781 C 435.011 110.791, 435.296 113.186, 436.632 118.161 C 436.877 119.074, 438.181 120.544, 439.530 121.428 C 441.742 122.877, 442.350 122.886, 445.741 121.523 L 449.500 120.011 447.139 122.005 C 445.841 123.102, 445.244 124, 445.812 124 C 446.381 124, 448.211 122.852, 449.879 121.448 C 452.792 118.998, 453.013 118.962, 455.456 120.563 C 457.566 121.946, 458 121.984, 458 120.789 C 458 119.997, 456.927 118.340, 455.614 117.108 C 453.605 115.219, 452.620 114.987, 449.364 115.634 C 443.968 116.705, 442.919 116.348, 439.416 112.256 C 437.453 109.963, 436.079 109.063, 435.635 109.781 M 532.381 128.155 C 533.211 132.305, 534.444 133.661, 538.647 135.049 C 542.657 136.372, 542.612 136.393, 543.527 132.748 C 544.166 130.203, 543.993 130, 541.180 130 C 538.255 130, 535 127.855, 535 125.929 C 535 125.418, 534.269 125, 533.375 125 C 532.085 125, 531.880 125.650, 532.381 128.155 M 545.533 129.250 C 545.311 129.938, 544.604 133.793, 543.963 137.818 C 542.973 144.026, 542.427 145.304, 540.360 146.246 C 539.015 146.859, 538.145 147.936, 538.420 148.651 C 538.906 149.918, 536.386 150.858, 528 152.536 C 521.988 153.739, 521.272 154.569, 519.402 162.502 C 518.034 168.306, 517.899 170.299, 518.814 171.214 C 520.362 172.762, 521.304 171.664, 523.504 165.750 C 524.476 163.137, 525.548 161.007, 525.886 161.015 C 526.224 161.023, 529.200 161.874, 532.500 162.906 C 536.868 164.272, 538.700 164.472, 539.235 163.641 C 540.412 161.812, 540.123 161.007, 538.250 160.898 C 537.288 160.841, 539.183 160.210, 542.463 159.494 C 548.276 158.226, 552 155.493, 552 152.496 C 552 151.791, 552.737 150.931, 553.638 150.586 C 557.315 149.174, 551.933 128, 547.897 128 C 546.819 128, 545.755 128.563, 545.533 129.250 M 438.868 212.036 C 436.445 214.759, 435.863 214.943, 431.549 214.352 L 426.862 213.709 427.181 217.605 L 427.500 221.500 432.801 221.359 C 438.950 221.195, 441.161 219.639, 442.791 214.331 C 444.625 208.352, 442.995 207.398, 438.868 212.036 M 418.056 212.921 C 414.840 217.438, 408.990 230.289, 408.347 234.249 C 407.870 237.186, 408.138 238.004, 409.885 238.938 C 411.400 239.749, 412 241.032, 412 243.463 C 412 248.827, 416.670 251.625, 429.388 253.881 L 433.500 254.610 429.250 255.317 C 425.912 255.872, 425 256.450, 425 258.012 C 425 259.694, 425.655 259.991, 429.250 259.940 C 431.587 259.908, 435.750 259.509, 438.500 259.055 C 441.543 258.553, 443.736 258.604, 444.102 259.185 C 444.434 259.711, 445.267 263.284, 445.953 267.127 C 447.073 273.393, 447.423 274.081, 449.351 273.806 C 451.399 273.514, 451.495 273.017, 451.388 263.231 C 451.252 250.887, 450.938 250.403, 440.137 245.930 C 428.991 241.314, 428.667 241.106, 430.022 239.474 C 431.371 237.849, 430.512 236, 428.409 236 C 425.932 236, 425.117 231.961, 425.448 221.336 C 425.749 211.675, 425.659 211.143, 423.632 210.600 C 420.408 209.734, 420.290 209.784, 418.056 212.921 M 418.150 259.250 C 418.289 262.275, 418.329 262.310, 418.716 259.750 C 419.152 256.872, 420.476 256.115, 421.338 258.250 C 421.639 258.997, 421.874 258.795, 421.921 257.750 C 421.971 256.640, 421.268 256, 420 256 C 418.380 256, 418.028 256.617, 418.150 259.250 M 358.329 465.250 C 358.632 467.038, 359.892 477.387, 361.129 488.250 L 363.378 508 376.768 508 L 390.159 508 389.491 504.959 C 389.062 503.006, 389.302 501.327, 390.162 500.267 C 390.898 499.359, 391.013 498.907, 390.418 499.263 C 388.975 500.127, 389.001 488.770, 390.444 487.765 C 391.143 487.279, 391.081 487.025, 390.261 487.015 C 388.875 486.998, 388.852 482.183, 390.230 480.339 C 390.731 479.669, 390.692 478.927, 390.137 478.585 C 389.610 478.259, 389.268 474.394, 389.379 469.996 L 389.579 462 373.678 462 L 357.777 462 358.329 465.250 M 335.923 489.691 C 335.811 490.883, 335.357 492.715, 333.187 500.750 L 331.229 508 336.526 508 L 341.823 508 340.350 501.750 C 339.541 498.313, 338.622 494.253, 338.310 492.729 C 337.771 490.103, 336.087 487.959, 335.923 489.691 M 790 511.477 C 788.625 512.250, 785.178 513.181, 782.339 513.546 C 776.864 514.249, 776.044 515.233, 776.014 521.144 C 776.004 522.971, 772.947 527.639, 766.115 536.256 C 760.679 543.114, 755.179 549.462, 753.893 550.363 C 750.415 552.799, 742.507 552.449, 736.363 549.589 L 731.226 547.197 729.595 551.348 C 727.716 556.133, 727.440 555.759, 737 561.378 C 748.369 568.061, 756.013 569.596, 762.143 566.426 C 763.816 565.561, 765.383 565.050, 765.624 565.291 C 765.865 565.532, 764.473 570.119, 762.531 575.484 C 758.512 586.588, 758.440 587, 760.531 587 C 763.023 587, 763.130 588.860, 761.508 604.040 C 758.107 635.879, 754.056 676.670, 754.014 679.500 C 753.989 681.150, 754.176 685.425, 754.429 689 C 754.682 692.575, 755.171 700.900, 755.517 707.500 C 755.863 714.100, 756.450 719.778, 756.823 720.118 C 757.195 720.458, 758.948 721.006, 760.717 721.336 L 763.934 721.937 767.115 711.718 C 768.864 706.098, 772.625 693.865, 775.473 684.533 L 780.650 667.566 778.320 660.228 C 774.591 648.488, 768.558 616.420, 770.396 618.115 C 770.763 618.453, 771.300 619.803, 771.590 621.115 C 772.461 625.057, 772.839 626.500, 773 626.500 C 773.084 626.500, 773.310 627.175, 773.501 628 C 773.693 628.825, 774.827 633.100, 776.022 637.500 C 777.217 641.900, 778.226 646.063, 778.264 646.750 C 778.302 647.438, 778.783 648, 779.333 648 C 779.883 648, 780.072 648.261, 779.753 648.581 C 779.104 649.229, 782.220 661.324, 784.626 667.500 C 785.483 669.700, 786.142 671.612, 786.092 671.750 C 785.315 673.863, 786.867 675.493, 791.684 677.624 C 796.966 679.960, 834.084 691.360, 834.476 690.767 C 835.164 689.725, 839.099 677.772, 838.834 677.529 C 838.650 677.361, 834 675.326, 828.500 673.008 C 810.824 665.558, 805.307 662.287, 804.620 658.849 C 804.004 655.769, 805.325 632.944, 806.956 618.500 C 807.452 614.100, 808.156 606.134, 808.519 600.798 C 808.943 594.574, 809.664 590.694, 810.531 589.975 C 811.845 588.884, 812.311 590.218, 813.328 597.989 C 813.572 599.848, 816.153 600.381, 820.742 599.520 L 824.285 598.856 823.604 588.178 C 822.583 572.178, 821.189 564.772, 816.805 552.046 C 812.063 538.281, 805.295 524.845, 800.640 519.958 C 798.784 518.010, 796.520 514.972, 795.608 513.208 C 793.740 509.596, 793.484 509.517, 790 511.477 M 363.632 518.052 C 363.354 519.398, 362.861 523.856, 362.537 527.957 C 362.213 532.059, 361.452 535.721, 360.846 536.095 C 358.842 537.334, 349.708 538.146, 349.087 537.141 C 348.758 536.608, 347.647 532.336, 346.619 527.646 L 344.750 519.120 333.874 518.810 L 322.999 518.500 319.249 522.943 C 317.187 525.386, 314.893 528.226, 314.151 529.253 C 313.153 530.634, 306 561.621, 306 564.563 C 306 564.803, 317.925 565, 332.500 565 L 359 565 359 561.559 C 359 559.666, 359.346 557.904, 359.768 557.643 C 360.191 557.382, 360.369 558.930, 360.163 561.084 L 359.790 565 372.895 565 C 385.789 565, 386.002 564.964, 386.100 562.750 C 386.195 560.601, 386.233 560.612, 386.952 563 C 387.643 565.298, 387.760 565.177, 388.397 561.500 C 388.778 559.300, 389.344 556.375, 389.655 555 C 389.965 553.625, 390.136 550.250, 390.033 547.500 C 389.931 544.750, 389.733 539.462, 389.595 535.750 C 389.453 531.971, 389.761 529, 390.294 529 C 390.821 529, 390.755 528.410, 390.146 527.676 C 389.342 526.707, 389.376 525.998, 390.274 525.030 C 391.244 523.983, 391.239 523.854, 390.250 524.412 C 389.483 524.845, 389 524.516, 389 523.559 C 389 522.702, 389.375 522, 389.833 522 C 391.075 522, 390.842 519.360, 389.583 519.168 C 388.988 519.077, 383.325 518.718, 377 518.372 C 370.641 518.023, 365.195 517.264, 364.819 516.673 C 364.438 516.076, 363.914 516.685, 363.632 518.052 M 303.529 576.239 C 303.299 576.932, 301.251 586.725, 298.977 598 C 296.704 609.275, 294.623 619.288, 294.354 620.250 C 293.894 621.896, 296.315 622, 335.219 622 L 376.574 622 380.359 603.250 C 382.441 592.938, 384.225 582.475, 384.322 580 L 384.500 575.500 344.223 575.239 C 312.510 575.033, 303.857 575.245, 303.529 576.239 M 603.667 632.667 C 603.300 633.033, 603 639.997, 603 648.142 L 603 662.950 600.435 661.975 C 593.858 659.475, 586.690 662.269, 583.895 668.424 C 582.877 670.666, 582.034 673.332, 582.022 674.349 C 581.983 677.662, 585.270 683.194, 588.420 685.114 C 591.794 687.172, 598.027 687.591, 601.066 685.965 C 602.932 684.966, 603 685.386, 603 697.830 C 603 709.367, 603.219 711.009, 605.073 713.365 L 607.145 716 645.073 716 C 681.667 716, 683.070 715.930, 685 714 C 686.930 712.070, 687 710.667, 687 674.073 L 687 636.145 684.365 634.073 C 682.007 632.218, 680.368 632, 668.758 632 C 656.774 632, 655.845 632.133, 656.563 633.750 C 658.407 637.903, 658.212 643.921, 656.123 647.301 C 653.607 651.373, 650.313 653, 644.588 653 C 635.141 653, 629.617 643.403, 633.508 633.750 C 634.162 632.130, 633.105 632, 619.274 632 C 611.056 632, 604.033 632.300, 603.667 632.667 M 744.750 742.723 C 746.538 742.945, 749.462 742.945, 751.250 742.723 C 753.038 742.502, 751.575 742.320, 748 742.320 C 744.425 742.320, 742.962 742.502, 744.750 742.723" stroke="none" fill="#4c59b7" fill-rule="evenodd"/><path d="M 412.388 22.683 C 406.231 29.889, 398.058 40.391, 398.367 40.700 C 398.496 40.829, 403.505 38.909, 409.497 36.433 C 433.716 26.424, 461.346 19.941, 489.500 17.660 C 491.700 17.482, 476.342 17.261, 455.371 17.168 L 417.243 17 412.388 22.683 M 522.175 18.051 C 588.313 23.935, 644.440 63.210, 677.875 127 C 688.571 147.407, 699.369 176.994, 704.884 201 C 705.958 205.675, 708.498 218.725, 710.528 230 C 717.589 269.208, 720.839 279.462, 736.358 311.500 L 747.500 334.500 747.500 342.500 C 747.500 349.430, 747.132 351.127, 744.744 355.188 C 741.064 361.449, 735.082 366.167, 724.807 370.914 L 716.301 374.844 715.647 381.172 C 712.714 409.541, 703.197 443.550, 691.767 466.500 C 686.943 476.187, 676.484 493, 675.282 493 C 674.956 493, 669.818 491.425, 663.864 489.500 C 652.127 485.706, 649.282 485.333, 646.697 487.250 C 645.364 488.239, 637 510.474, 637 513.030 C 637 513.373, 638.270 513.467, 639.823 513.239 C 642.976 512.777, 650 515.328, 650 516.936 C 650 519.099, 635.463 526.940, 624.610 530.632 C 613.597 534.379, 602.504 536.086, 588.958 536.121 C 572.678 536.162, 557.590 534.042, 541.364 529.433 L 539.228 528.826 541.074 537.663 C 542.090 542.523, 542.939 547.063, 542.961 547.750 C 542.989 548.665, 540.454 549, 533.500 549 C 518.855 549, 520 545.476, 520 590.545 L 520 628.091 522.281 630.372 L 524.562 632.653 522.281 634.373 C 520.039 636.064, 520 636.437, 520 656.208 L 520 676.322 454.885 675.713 C 419.072 675.378, 389.578 674.911, 389.341 674.675 C 388.328 673.662, 388.071 669.074, 388.995 668.503 C 389.673 668.084, 389.664 667.241, 388.968 665.939 C 388.007 664.145, 388.358 663.583, 390.250 663.882 C 390.663 663.947, 391 663.550, 391 663 C 391 662.450, 390.403 662, 389.673 662 C 388.769 662, 388.486 661.048, 388.785 659.010 C 389.041 657.267, 389.659 656.289, 390.267 656.665 C 390.945 657.084, 390.997 656.819, 390.416 655.905 C 389.240 654.055, 389.077 640.829, 390.213 639.339 C 390.699 638.700, 390.713 637.940, 390.243 637.650 C 389.773 637.360, 389.424 632.172, 389.467 626.122 C 389.510 620.072, 389.310 615.357, 389.022 615.644 C 388.375 616.292, 386.099 626.719, 376.617 672.500 C 372.516 692.300, 368.858 709.270, 368.488 710.212 C 366.990 714.024, 360.422 713.528, 359.417 709.527 C 358.775 706.969, 359.363 703.792, 368.090 662.620 C 371.341 647.285, 374 634.123, 374 633.370 C 374 632.232, 367.046 632, 333.019 632 L 292.038 632 291.503 634.250 C 291.208 635.487, 287.604 653.150, 283.494 673.500 C 275.865 711.274, 275.317 713, 270.964 713 C 270.054 713, 268.457 712.057, 267.413 710.904 C 265.545 708.840, 265.579 708.511, 269.695 688.654 C 271.993 677.569, 278.861 644.452, 284.957 615.061 C 291.053 585.669, 295.919 561.288, 295.770 560.881 C 295.622 560.473, 292.041 556.993, 287.814 553.146 L 280.129 546.153 282.584 543.504 L 285.039 540.855 288.047 543.386 C 289.701 544.778, 291.640 545.692, 292.356 545.417 C 293.156 545.110, 294.365 546.482, 295.486 548.969 C 296.491 551.197, 297.455 552.878, 297.629 552.704 C 297.804 552.530, 298.632 549.038, 299.470 544.944 C 300.308 540.850, 301.207 536.574, 301.468 535.442 C 301.829 533.874, 300.768 532.507, 297.016 529.706 L 292.090 526.029 297.396 518.264 C 306.244 505.315, 308.271 501.117, 310.753 490.595 C 312.823 481.822, 313.206 477.142, 313.684 454.853 L 314.234 429.207 317.360 430.103 C 320.995 431.146, 339.908 431.155, 348.196 430.119 L 353.893 429.406 354.417 432.953 C 354.706 434.904, 355.217 439.200, 355.553 442.500 C 356.599 452.774, 355.443 452.010, 369.817 451.926 C 380.352 451.864, 395.047 450.556, 390.050 450.125 C 388.946 450.030, 388.878 449.722, 389.765 448.835 C 390.652 447.948, 390.521 447.368, 389.215 446.406 C 387.642 445.248, 387.636 445.090, 389.139 444.507 C 390.163 444.110, 390.590 443.148, 390.276 441.947 C 389.987 440.843, 389.288 440.313, 388.636 440.703 C 387.900 441.145, 387.928 440.855, 388.718 439.879 C 389.387 439.051, 389.709 437.128, 389.434 435.606 C 389.158 434.085, 389.322 433.081, 389.799 433.376 C 390.276 433.671, 390.667 433.300, 390.667 432.551 C 390.667 431.774, 390.045 431.429, 389.218 431.747 C 388.092 432.179, 387.932 431.767, 388.500 429.901 C 388.902 428.581, 389.250 427.275, 389.274 427 C 389.390 425.667, 387.156 421.744, 381.747 413.781 L 375.824 405.062 364.271 404.781 L 352.717 404.500 351.374 400 C 350.635 397.525, 350.024 395.387, 350.015 395.250 C 350.007 395.113, 354.102 395, 359.115 395 L 368.230 395 366.615 392.535 C 365.727 391.180, 365 389.830, 365 389.535 C 365 389.241, 367.633 389, 370.851 389 C 375.229 389, 377.936 388.345, 381.601 386.401 C 387.305 383.374, 396.045 376.150, 398.967 372.046 L 401.001 369.190 396.506 366.556 L 392.011 363.922 395.109 357.711 C 396.813 354.295, 399.488 350.150, 401.053 348.500 C 402.618 346.850, 404.602 343.813, 405.463 341.750 L 407.027 338 420.946 338 C 433.331 338, 434.925 337.807, 435.403 336.250 C 435.699 335.287, 437.738 325.790, 439.935 315.145 C 442.132 304.500, 444.450 295.162, 445.087 294.395 C 446.781 292.354, 450.671 292.692, 452.303 295.022 C 453.541 296.790, 453.440 298.426, 451.495 308.022 C 450.272 314.060, 449.464 319, 449.700 319 C 449.936 319, 451.236 317.685, 452.588 316.078 C 456.161 311.831, 461.892 309.487, 476.131 306.448 C 496.993 301.994, 501.141 298.571, 507.570 280.500 C 512.089 267.799, 515.103 262.662, 520.204 258.967 C 525.324 255.258, 528.232 254.445, 545.310 251.947 C 567.821 248.655, 575.987 244.473, 584.614 231.817 C 588.751 225.750, 590.712 221.274, 594.870 208.408 C 602.449 184.960, 601.697 185.786, 621.769 178.865 C 638.350 173.148, 642.132 170.152, 644.029 161.230 C 645.440 154.599, 644.825 151.681, 639.658 140.500 L 635.500 131.500 634.973 112.500 C 634.388 91.408, 633.684 88.799, 626.838 82.362 C 622.149 77.953, 618.415 76.288, 607.779 73.862 C 602.676 72.698, 597.150 71.075, 595.500 70.255 C 593.850 69.436, 588.180 64.548, 582.901 59.393 C 570.897 47.673, 566.993 45.758, 554 45.215 C 546.282 44.893, 542.361 45.314, 533.097 47.461 C 514.939 51.669, 511.682 51.713, 493.003 48.001 C 479.325 45.282, 475.109 44.826, 467.383 45.231 C 453.794 45.941, 446.856 49.496, 432.418 63.145 C 417.966 76.808, 416.975 77.262, 393.414 80.999 C 375.351 83.864, 361.999 96.016, 358.530 112.749 C 355.036 129.602, 354.436 130.687, 345.409 136.496 C 334.782 143.334, 328 153.284, 328 162.037 C 328 164.591, 328.912 171.048, 330.026 176.386 C 332.349 187.510, 331.931 190.564, 327.021 198.306 C 322.370 205.640, 319.223 212.258, 318.582 216.055 C 317.669 221.463, 317.142 224.319, 316.609 226.750 C 316.337 227.988, 316.481 229, 316.928 229 C 317.376 229, 318.049 232.121, 318.425 235.935 C 318.801 239.749, 319.500 243.011, 319.979 243.185 C 320.458 243.358, 320.996 244.143, 321.175 244.929 C 321.659 247.058, 323.730 249.620, 331.859 258.148 L 339.218 265.868 340.152 273.684 C 341.801 287.488, 342.886 292.130, 345.513 296.612 C 348.500 301.709, 349.520 302.047, 350.472 298.256 C 350.851 296.746, 351.630 294.946, 352.203 294.256 C 353.734 292.411, 357.442 292.726, 359.379 294.866 C 360.812 296.450, 360.909 297.445, 360.015 301.432 C 359.436 304.016, 359.197 306.510, 359.484 306.975 C 359.772 307.439, 363.210 308.392, 367.125 309.092 C 371.041 309.791, 375.648 311.310, 377.363 312.466 C 379.090 313.629, 382.717 318.367, 385.491 323.083 C 388.246 327.767, 391.508 332.990, 392.740 334.690 C 394.659 337.338, 394.860 338.406, 394.137 342.141 C 393.674 344.538, 391.653 348.965, 389.647 351.977 C 387.641 354.990, 386 357.802, 386 358.227 C 386 358.652, 385.175 359, 384.167 359 C 383.159 359, 380.858 360.838, 379.052 363.085 C 375.230 367.841, 370.488 370.991, 367.143 370.996 C 365.847 370.998, 361.737 370.264, 358.010 369.365 C 352.165 367.954, 351.019 367.301, 349.668 364.615 C 348.158 361.610, 348.079 361.579, 347.435 363.750 C 346.648 366.400, 344.003 366.785, 343.994 364.250 C 343.990 363.288, 343.379 361.333, 342.635 359.907 C 341.890 358.481, 340.969 355.556, 340.587 353.407 C 340.206 351.258, 339.664 348.718, 339.383 347.762 C 338.954 346.300, 339.351 346.120, 341.896 346.629 C 346.188 347.488, 350.579 342.989, 351.510 336.782 C 352.127 332.665, 350.553 321, 349.380 321 C 349.116 321, 347.298 322.557, 345.339 324.459 C 341.634 328.058, 335.924 330.568, 333.532 329.651 C 330.605 328.527, 329.824 331.600, 331.983 335.743 C 333.115 337.914, 334.580 342.264, 335.240 345.409 C 336.698 352.358, 335.345 355.595, 329.906 358.168 C 325.105 360.440, 324.440 361.437, 322.105 369.865 C 320.989 373.891, 319.261 378.606, 318.265 380.342 C 316.038 384.225, 308.886 388, 303.756 388 C 294.442 388, 289.010 382.521, 289.004 373.118 C 289 368.286, 289.345 367.418, 292.374 364.618 C 294.230 362.903, 298.923 360.240, 302.802 358.701 C 316.107 353.421, 318.316 350.167, 318.552 335.500 C 318.722 324.947, 320.009 320.332, 323.923 316.248 L 326.082 313.996 322.509 304.455 C 320.543 299.207, 319.201 294.483, 319.527 293.957 C 319.852 293.431, 319.695 293, 319.178 293 C 318.204 293, 315.535 284.399, 315.866 282.325 C 315.969 281.679, 315.591 280.865, 315.027 280.516 C 314.462 280.167, 314 279.009, 314 277.941 C 314 276.145, 314.995 275.563, 317.500 275.896 C 318.050 275.969, 317.488 275.163, 316.250 274.104 C 313.841 272.044, 313.182 268.010, 315.250 267.985 C 316.083 267.974, 316.001 267.654, 315.005 267.024 C 314.183 266.505, 313.441 264.824, 313.356 263.290 C 313.271 261.755, 313.418 261.063, 313.684 261.750 C 314.475 263.799, 315.856 263.165, 315.293 261.011 C 315.007 259.917, 314.421 259.240, 313.991 259.506 C 313.561 259.771, 312.966 259.353, 312.668 258.577 C 312.370 257.801, 312.796 256.908, 313.615 256.594 C 314.565 256.230, 314.848 256.437, 314.397 257.166 C 313.952 257.887, 314.136 258.034, 314.894 257.565 C 315.704 257.065, 315.774 256.432, 315.108 255.630 C 313.518 253.714, 312.992 248.883, 314.140 246.738 C 314.791 245.522, 314.815 244.996, 314.202 245.375 C 313.396 245.873, 313.255 241.872, 313.942 238 C 313.991 237.725, 314.467 238.175, 315 239 C 315.678 240.049, 315.974 240.115, 315.985 239.219 C 315.993 238.514, 315.325 237.678, 314.500 237.362 C 312.247 236.497, 312.696 235.016, 315.250 234.884 C 316.943 234.797, 317.067 234.655, 315.750 234.311 C 314.788 234.059, 313.923 232.874, 313.829 231.677 C 313.363 225.749, 313.460 223.351, 314.229 221.750 C 314.723 220.723, 314.679 220, 314.124 220 C 312.613 220, 313.547 216.514, 315.098 216.365 C 315.869 216.291, 316.950 216.172, 317.500 216.101 C 318.050 216.029, 317.375 215.375, 316 214.648 C 314.172 213.681, 313.112 213.618, 312.058 214.413 C 310.909 215.279, 310.801 215.195, 311.527 214 C 312.028 213.175, 312.369 211.375, 312.283 210 C 312.191 208.504, 312.333 208.203, 312.638 209.250 C 313.463 212.086, 314.770 211.249, 314.200 208.250 C 313.772 205.995, 313.940 205.680, 315.136 206.500 C 315.938 207.050, 315.736 206.713, 314.686 205.750 C 313.129 204.322, 313.064 204, 314.330 204 C 315.184 204, 316.203 203.480, 316.595 202.845 C 316.988 202.211, 316.902 201.923, 316.405 202.206 C 315.907 202.490, 314.150 202.098, 312.500 201.336 L 309.500 199.951 312.750 200.555 C 315.001 200.973, 316 200.776, 316 199.913 C 316 199.227, 315.704 198.963, 315.342 199.325 C 314.595 200.072, 312 198.196, 312 196.909 C 312 196.444, 312.683 196.325, 313.519 196.646 C 314.803 197.138, 314.870 196.789, 313.956 194.384 C 313.361 192.820, 312.341 191.165, 311.687 190.705 C 310.984 190.210, 311.394 190.120, 312.692 190.483 C 314.439 190.973, 314.853 190.698, 314.734 189.124 C 314.614 187.521, 314.237 187.338, 312.722 188.149 C 310.936 189.105, 310.928 189.039, 312.547 186.568 C 313.990 184.367, 314.037 183.744, 312.868 182.303 C 311.918 181.131, 311.884 180.847, 312.758 181.372 C 313.462 181.795, 314.672 181.470, 315.508 180.635 C 317.331 178.812, 317.500 177.340, 315.716 178.820 C 314.903 179.496, 313.896 179.546, 312.966 178.958 C 311.779 178.207, 311.880 178.025, 313.500 178 C 314.942 177.978, 315.137 177.739, 314.197 177.143 C 313.481 176.689, 312.971 175.908, 313.066 175.408 C 313.455 173.340, 312.936 171.922, 312 172.500 C 311.450 172.840, 311 172.698, 311 172.184 C 311 171.670, 312.405 170.969, 314.123 170.625 C 316.593 170.131, 317.013 169.720, 316.131 168.658 C 315.519 167.920, 315.351 166.922, 315.759 166.441 C 316.166 165.960, 315.717 166.165, 314.761 166.896 C 313.805 167.628, 313.269 168.626, 313.570 169.113 C 313.871 169.601, 313.401 170, 312.524 170 C 311.240 170, 311.138 169.611, 312 168 C 312.762 166.577, 312.760 166, 311.996 166 C 311.333 166, 311.415 165.468, 312.211 164.610 C 312.920 163.846, 314.280 163.368, 315.233 163.550 C 316.844 163.855, 316.853 163.706, 315.368 161.439 C 314.489 160.098, 313.372 159, 312.885 159 C 311.308 159, 311.949 154.762, 313.750 153.286 C 314.712 152.497, 314.969 152.117, 314.319 152.442 C 313.670 152.767, 312.849 152.564, 312.495 151.992 C 312.141 151.419, 312.447 151.074, 313.176 151.225 C 313.904 151.376, 314.387 150.938, 314.250 150.250 C 314.112 149.563, 314.536 149, 315.191 149 C 315.846 149, 315.547 148.389, 314.526 147.642 C 312.721 146.323, 312.722 146.251, 314.584 145.079 C 316.275 144.015, 316.148 143.935, 313.500 144.397 C 311.850 144.685, 311.065 144.675, 311.756 144.375 C 312.447 144.075, 312.758 143.418, 312.447 142.915 C 312.136 142.412, 312.584 142, 313.441 142 C 314.298 142, 314.993 141.213, 314.985 140.250 C 314.972 138.754, 314.828 138.718, 314 140 C 313.387 140.949, 313.025 141.052, 313.015 140.281 C 313.006 139.575, 312.264 139.299, 311.250 139.626 C 309.823 140.085, 309.768 139.999, 310.952 139.160 C 311.751 138.595, 312.763 138.354, 313.202 138.625 C 313.641 138.896, 314.014 138.529, 314.032 137.809 C 314.051 137.002, 314.626 137.244, 315.532 138.441 C 316.339 139.509, 317 139.901, 317 139.314 C 317 137.807, 314.460 135.873, 313.605 136.728 C 313.214 137.119, 313.221 136.587, 313.621 135.546 C 314.169 134.118, 313.983 133.793, 312.862 134.223 C 311.703 134.667, 311.472 134.143, 311.811 131.836 C 312.104 129.836, 312.690 129.051, 313.622 129.409 C 314.380 129.699, 315 129.501, 315 128.969 C 315 128.436, 314.495 128, 313.878 128 C 313.102 128, 313.140 127.536, 314 126.500 C 314.685 125.675, 314.960 125, 314.611 125 C 313.733 125, 322.035 108.579, 323.122 108.167 C 323.605 107.983, 324 107.243, 324 106.522 C 324 104.579, 334.205 90.647, 342.328 81.500 C 346.235 77.100, 348.547 74.225, 347.466 75.111 C 345.900 76.395, 341.028 76.954, 323.500 77.864 C 272.530 80.510, 232.736 90.540, 190.188 111.465 L 173.411 119.716 167.181 113.860 C 149.670 97.401, 130.570 96.136, 108.643 109.984 C 97.634 116.937, 90.988 125.601, 86.388 139 C 83.933 146.151, 83.750 172.900, 86.086 183.099 L 87.597 189.698 83.213 194.540 C 80.802 197.203, 75.083 204.370, 70.504 210.466 C 32.633 260.887, 10.251 319.730, 4.928 382.866 C 2.574 410.784, 4.830 448.670, 10.504 476.500 C 35.774 600.451, 129.561 699.287, 252.500 731.524 C 279.776 738.677, 306.307 741.979, 336.500 741.979 C 365.763 741.979, 387.022 739.455, 417.500 732.363 C 440.594 726.990, 456.135 724.938, 478.611 724.296 C 517.083 723.196, 546.776 728.061, 587 742.054 C 622.440 754.384, 647.123 758.923, 683.070 759.720 C 724.083 760.629, 756.046 755.721, 792.500 742.917 C 813.849 735.418, 851.824 716.807, 849.236 715.111 C 848.722 714.775, 848.012 709.955, 847.656 704.401 C 847.062 695.121, 847.172 694.155, 849.005 692.496 C 850.102 691.503, 851 689.683, 851 688.452 C 851 685.604, 853.112 684.795, 857.005 686.151 C 859.519 687.028, 859.944 687.601, 859.386 689.359 C 857.249 696.087, 853.117 712.450, 853.466 712.799 C 854.148 713.482, 870.339 702.230, 881.770 693.130 C 895.359 682.312, 918.074 659.630, 928.968 646 C 959.927 607.268, 981.304 561.435, 990.352 514.391 C 994.932 490.584, 995.503 483.850, 995.435 454.500 C 995.382 431.222, 995.016 424.221, 993.268 412.987 C 985.626 363.889, 969.274 321.943, 942.633 283.100 C 934.139 270.716, 917.921 251.184, 908.196 241.627 L 901.203 234.755 908.272 223.127 C 919.115 205.292, 929.455 184.347, 933.599 171.824 C 937.018 161.491, 937.353 159.494, 937.423 149 C 937.488 139.219, 937.177 136.801, 935.339 132.824 C 930.589 122.545, 920.502 114.869, 909.108 112.862 C 889.909 109.480, 862.526 127.711, 838.978 159.552 C 834.932 165.023, 829.892 171.862, 827.778 174.750 C 825.665 177.637, 823.460 180, 822.880 180 C 821.023 180, 805.540 172.873, 804.771 171.664 C 804.364 171.024, 804.024 166.888, 804.015 162.474 C 803.925 114.955, 781.584 58.343, 748.742 22.408 L 743.799 17 628.650 17.139 C 565.317 17.216, 517.404 17.626, 522.175 18.051 M 432.965 103.542 C 431.998 104.708, 431.967 105.367, 432.839 106.239 C 433.710 107.110, 434.338 106.919, 435.408 105.457 C 437.701 102.321, 435.446 100.553, 432.965 103.542 M 441 106.334 C 441 107.133, 440.250 108.074, 439.333 108.426 C 438.098 108.900, 437.957 109.357, 438.790 110.190 C 439.624 111.024, 440.315 110.983, 441.458 110.035 C 443.216 108.576, 443.475 106.412, 442 105.500 C 441.450 105.160, 441 105.535, 441 106.334 M 435.635 109.781 C 435.011 110.791, 435.296 113.186, 436.632 118.161 C 436.877 119.074, 438.181 120.544, 439.530 121.428 C 441.742 122.877, 442.350 122.886, 445.741 121.523 C 449.460 120.027, 449.476 120.031, 447.288 121.885 C 445.095 123.743, 445.093 123.774, 447.038 125.534 C 448.117 126.511, 449 126.817, 449 126.214 C 449 125.611, 448.548 124.839, 447.996 124.498 C 447.440 124.154, 448.312 122.767, 449.952 121.387 C 452.791 118.998, 453.016 118.965, 455.456 120.563 C 457.566 121.946, 458 121.984, 458 120.789 C 458 119.997, 456.927 118.340, 455.614 117.108 C 453.605 115.219, 452.620 114.987, 449.364 115.634 C 443.968 116.705, 442.919 116.348, 439.416 112.256 C 437.453 109.963, 436.079 109.063, 435.635 109.781 M 542.243 115.157 C 540.365 117.035, 540.752 119, 543 119 C 544.100 119, 545 119.450, 545 120 C 545 120.550, 545.638 121, 546.417 121 C 547.196 121, 548.040 121.563, 548.293 122.250 C 548.546 122.938, 549.100 122.193, 549.524 120.595 C 549.963 118.940, 549.865 117.004, 549.296 116.095 C 548.034 114.077, 543.876 113.524, 542.243 115.157 M 532.381 128.155 C 533.211 132.305, 534.444 133.661, 538.647 135.049 C 542.657 136.372, 542.612 136.393, 543.527 132.748 C 544.166 130.203, 543.993 130, 541.180 130 C 538.255 130, 535 127.855, 535 125.929 C 535 125.418, 534.269 125, 533.375 125 C 532.085 125, 531.880 125.650, 532.381 128.155 M 545.533 129.250 C 545.311 129.938, 544.604 133.793, 543.963 137.818 C 542.973 144.026, 542.427 145.304, 540.360 146.246 C 539.015 146.859, 538.145 147.936, 538.420 148.651 C 538.906 149.918, 536.386 150.858, 528 152.536 C 521.988 153.739, 521.272 154.569, 519.402 162.502 C 518.034 168.306, 517.899 170.299, 518.814 171.214 C 520.362 172.762, 521.304 171.664, 523.504 165.750 C 524.476 163.137, 525.548 161.007, 525.886 161.015 C 526.224 161.023, 529.200 161.874, 532.500 162.906 C 536.868 164.272, 538.700 164.472, 539.235 163.641 C 540.412 161.812, 540.123 161.007, 538.250 160.898 C 537.288 160.841, 539.183 160.210, 542.463 159.494 C 548.276 158.226, 552 155.493, 552 152.496 C 552 151.791, 552.737 150.931, 553.638 150.586 C 557.315 149.174, 551.933 128, 547.897 128 C 546.819 128, 545.755 128.563, 545.533 129.250 M 542 163.333 C 542 164.158, 541.535 164.988, 540.966 165.178 C 540.283 165.406, 540.235 166.878, 540.825 169.511 L 541.718 173.500 542.812 170.809 C 544.455 166.766, 544.660 162.766, 543.250 162.272 C 542.563 162.031, 542 162.508, 542 163.333 M 512 175.236 C 509.653 176.273, 509.807 176.384, 514.500 177.037 C 519.384 177.716, 521.767 177.050, 520.689 175.306 C 519.891 174.014, 514.855 173.974, 512 175.236 M 424.250 193.650 C 421.899 195.316, 421.408 198.820, 423.012 202.500 C 423.865 204.458, 423.897 204.454, 424.540 202.319 C 424.912 201.084, 425.761 200.355, 426.497 200.637 C 427.213 200.912, 428.096 200.654, 428.460 200.065 C 428.824 199.475, 430.220 199.268, 431.561 199.605 C 433.656 200.131, 434 199.867, 434 197.731 C 434 193.283, 428.197 190.854, 424.250 193.650 M 438.868 212.036 C 436.445 214.759, 435.863 214.943, 431.549 214.352 L 426.862 213.709 427.181 217.605 L 427.500 221.500 432.801 221.359 C 438.950 221.195, 441.161 219.639, 442.791 214.331 C 444.625 208.352, 442.995 207.398, 438.868 212.036 M 418.056 212.921 C 414.840 217.438, 408.990 230.289, 408.347 234.249 C 407.870 237.186, 408.138 238.004, 409.885 238.938 C 411.400 239.749, 412 241.032, 412 243.463 C 412 248.827, 416.670 251.625, 429.388 253.881 L 433.500 254.610 429.250 255.317 C 425.912 255.872, 425 256.450, 425 258.012 C 425 259.694, 425.655 259.991, 429.250 259.940 C 431.587 259.908, 435.750 259.509, 438.500 259.055 C 441.543 258.553, 443.736 258.604, 444.102 259.185 C 444.434 259.711, 445.267 263.284, 445.953 267.127 C 447.073 273.393, 447.423 274.081, 449.351 273.806 C 451.399 273.514, 451.495 273.017, 451.388 263.231 C 451.252 250.887, 450.938 250.403, 440.137 245.930 C 428.991 241.314, 428.667 241.106, 430.022 239.474 C 431.371 237.849, 430.512 236, 428.409 236 C 425.932 236, 425.117 231.961, 425.448 221.336 C 425.749 211.675, 425.659 211.143, 423.632 210.600 C 420.408 209.734, 420.290 209.784, 418.056 212.921 M 418.364 260.640 C 418.714 263.191, 419 266.341, 419 267.640 C 419 271.605, 421.684 270.380, 422.368 266.102 C 423.296 260.294, 422.179 256, 419.739 256 C 417.922 256, 417.789 256.447, 418.364 260.640 M 449.250 277.706 C 446.586 278.219, 446.251 280.658, 448.750 281.349 C 453.359 282.621, 460 283.054, 460 282.082 C 460 281.193, 452.619 276.747, 451.790 277.136 C 451.630 277.211, 450.488 277.467, 449.250 277.706 M 358.329 465.250 C 358.632 467.038, 359.892 477.387, 361.129 488.250 L 363.378 508 376.768 508 L 390.159 508 389.491 504.959 C 389.062 503.006, 389.302 501.327, 390.162 500.267 C 390.898 499.359, 391.013 498.907, 390.418 499.263 C 388.975 500.127, 389.001 488.770, 390.444 487.765 C 391.143 487.279, 391.081 487.025, 390.261 487.015 C 388.875 486.998, 388.852 482.183, 390.230 480.339 C 390.731 479.669, 390.692 478.927, 390.137 478.585 C 389.610 478.259, 389.268 474.394, 389.379 469.996 L 389.579 462 373.678 462 L 357.777 462 358.329 465.250 M 780 463.382 C 777.525 464.065, 773.811 465.507, 771.747 466.585 C 768.095 468.494, 768.038 468.609, 769.614 470.859 C 770.504 472.131, 773.147 473.991, 775.485 474.994 C 778.449 476.264, 779.932 477.592, 780.380 479.379 C 780.734 480.789, 781.921 482.423, 783.018 483.009 C 784.883 484.008, 784.913 484.267, 783.485 487.029 C 781.010 491.816, 778.242 493.102, 773.181 491.818 C 770.173 491.054, 768.558 491.042, 767.825 491.775 C 766.308 493.292, 767.511 494.652, 770.979 495.346 C 774.371 496.024, 775.105 498, 771.965 498 C 770.289 498, 770.106 498.329, 770.927 499.863 C 772.592 502.975, 777.344 504.423, 780.666 502.831 C 784.188 501.143, 785.856 497.727, 786.784 490.302 C 787.394 485.413, 787.822 484.500, 789.504 484.500 C 791.037 484.500, 791.519 485.196, 791.582 487.500 C 791.715 492.328, 791.927 493, 793.313 493 C 794.825 493, 799.228 488.527, 800.878 485.316 C 802.541 482.077, 802.202 476.042, 800.096 471.405 C 796.875 464.311, 788.599 461.007, 780 463.382 M 335.923 489.691 C 335.811 490.883, 335.357 492.715, 333.187 500.750 L 331.229 508 336.526 508 L 341.823 508 340.350 501.750 C 339.541 498.313, 338.622 494.253, 338.310 492.729 C 337.771 490.103, 336.087 487.959, 335.923 489.691 M 790 511.477 C 788.625 512.250, 785.178 513.181, 782.339 513.546 C 776.864 514.249, 776.044 515.233, 776.014 521.144 C 776.004 522.971, 772.947 527.639, 766.115 536.256 C 760.679 543.114, 755.179 549.462, 753.893 550.363 C 750.415 552.799, 742.507 552.449, 736.363 549.589 L 731.226 547.197 729.595 551.348 C 727.716 556.133, 727.440 555.759, 737 561.378 C 748.369 568.061, 756.013 569.596, 762.143 566.426 C 763.816 565.561, 765.383 565.050, 765.624 565.291 C 765.865 565.532, 764.473 570.119, 762.531 575.484 C 758.512 586.588, 758.440 587, 760.531 587 C 763.023 587, 763.130 588.860, 761.508 604.040 C 758.107 635.879, 754.056 676.670, 754.014 679.500 C 753.989 681.150, 754.176 685.425, 754.429 689 C 754.682 692.575, 755.171 700.900, 755.517 707.500 C 755.863 714.100, 756.450 719.778, 756.823 720.118 C 757.195 720.458, 758.948 721.006, 760.717 721.336 L 763.934 721.937 767.115 711.718 C 768.864 706.098, 772.625 693.865, 775.473 684.533 L 780.650 667.566 778.320 660.228 C 774.591 648.488, 768.558 616.420, 770.396 618.115 C 770.763 618.453, 771.300 619.803, 771.590 621.115 C 772.461 625.057, 772.839 626.500, 773 626.500 C 773.084 626.500, 773.310 627.175, 773.501 628 C 773.693 628.825, 774.827 633.100, 776.022 637.500 C 777.217 641.900, 778.226 646.063, 778.264 646.750 C 778.302 647.438, 778.783 648, 779.333 648 C 779.883 648, 780.072 648.261, 779.753 648.581 C 779.104 649.229, 782.220 661.324, 784.626 667.500 C 785.483 669.700, 786.142 671.612, 786.092 671.750 C 785.315 673.863, 786.867 675.493, 791.684 677.624 C 796.966 679.960, 834.084 691.360, 834.476 690.767 C 835.164 689.725, 839.099 677.772, 838.834 677.529 C 838.650 677.361, 834 675.326, 828.500 673.008 C 810.824 665.558, 805.307 662.287, 804.620 658.849 C 804.004 655.769, 805.325 632.944, 806.956 618.500 C 807.452 614.100, 808.156 606.134, 808.519 600.798 C 808.943 594.574, 809.664 590.694, 810.531 589.975 C 811.845 588.884, 812.311 590.218, 813.328 597.989 C 813.572 599.848, 816.153 600.381, 820.742 599.520 L 824.285 598.856 823.604 588.178 C 822.583 572.178, 821.189 564.772, 816.805 552.046 C 812.063 538.281, 805.295 524.845, 800.640 519.958 C 798.784 518.010, 796.520 514.972, 795.608 513.208 C 793.740 509.596, 793.484 509.517, 790 511.477 M 363.632 518.052 C 363.354 519.398, 362.861 523.856, 362.537 527.957 C 362.213 532.059, 361.452 535.721, 360.846 536.095 C 358.842 537.334, 349.708 538.146, 349.087 537.141 C 348.758 536.608, 347.647 532.336, 346.619 527.646 L 344.750 519.120 333.874 518.810 L 322.999 518.500 319.249 522.943 C 317.187 525.386, 314.893 528.226, 314.151 529.253 C 313.153 530.634, 306 561.621, 306 564.563 C 306 564.803, 317.898 565, 332.440 565 L 358.879 565 359.190 561.250 C 359.493 557.588, 359.586 557.508, 363.162 557.819 C 365.597 558.031, 367.104 557.647, 367.662 556.673 C 368.372 555.431, 369.569 555.642, 375.500 558.051 C 379.350 559.616, 383.512 560.919, 384.750 560.948 C 386.375 560.985, 387 561.602, 387 563.167 C 387 564.358, 387.258 565.075, 387.574 564.760 C 388.608 563.725, 390.178 552.608, 390.010 547.500 C 389.920 544.750, 389.733 539.462, 389.595 535.750 C 389.453 531.971, 389.761 529, 390.294 529 C 390.821 529, 390.755 528.410, 390.146 527.676 C 389.342 526.707, 389.376 525.998, 390.274 525.030 C 391.244 523.983, 391.239 523.854, 390.250 524.412 C 389.483 524.845, 389 524.516, 389 523.559 C 389 522.702, 389.375 522, 389.833 522 C 391.075 522, 390.842 519.360, 389.583 519.168 C 388.988 519.077, 383.325 518.718, 377 518.372 C 370.641 518.023, 365.195 517.264, 364.819 516.673 C 364.438 516.076, 363.914 516.685, 363.632 518.052 M 303.529 576.239 C 303.299 576.932, 301.251 586.725, 298.977 598 C 296.704 609.275, 294.623 619.288, 294.354 620.250 C 293.894 621.896, 296.315 622, 335.219 622 L 376.574 622 380.359 603.250 C 382.441 592.938, 384.225 582.475, 384.322 580 L 384.500 575.500 344.223 575.239 C 312.510 575.033, 303.857 575.245, 303.529 576.239 M 603.667 632.667 C 603.300 633.033, 603 639.997, 603 648.142 L 603 662.950 600.435 661.975 C 593.858 659.475, 586.690 662.269, 583.895 668.424 C 582.877 670.666, 582.034 673.332, 582.022 674.349 C 581.983 677.662, 585.270 683.194, 588.420 685.114 C 591.794 687.172, 598.027 687.591, 601.066 685.965 C 602.932 684.966, 603 685.386, 603 697.830 C 603 709.367, 603.219 711.009, 605.073 713.365 L 607.145 716 645.073 716 C 681.667 716, 683.070 715.930, 685 714 C 686.930 712.070, 687 710.667, 687 674.073 L 687 636.145 684.365 634.073 C 682.007 632.218, 680.368 632, 668.758 632 C 656.774 632, 655.845 632.133, 656.563 633.750 C 658.407 637.903, 658.212 643.921, 656.123 647.301 C 653.607 651.373, 650.313 653, 644.588 653 C 635.141 653, 629.617 643.403, 633.508 633.750 C 634.162 632.130, 633.105 632, 619.274 632 C 611.056 632, 604.033 632.300, 603.667 632.667 M 738 735.164 C 728.121 739.108, 727.556 739.432, 727.177 741.357 C 726.890 742.813, 728.314 742.998, 739.677 742.986 C 756.408 742.969, 757.189 742.746, 756.803 738.120 C 756.515 734.676, 756.306 734.485, 752.500 734.183 C 750.300 734.009, 748.072 733.446, 747.550 732.933 C 746.347 731.751, 746.832 731.638, 738 735.164" stroke="none" fill="#beb3d1" fill-rule="evenodd"/></svg>